# xmcd
#
# Track frame offsets: 
#        150
#        13924
#        33660
#        61302
#        77897
#        96940
#        110007
#        122827
#        135091
#        157636
#        179273
#        203667
#
# Disc length: 3031 seconds
#
# Revision: 0
# Processed by: cddbd v1.5.1PL0 Copyright (c) Steve Scherf et al.
# Submitted via: ExactAudioCopy v0.95a5
#
DISCID=970bd50c
DTITLE=Carol Grimes - Mother
DYEAR=2003
DGENRE=Blues
TTITLE0=New Coat of Paint
TTITLE1=Into My Arms
TTITLE2=Who Knows Where The Time Goes
TTITLE3=Moira
TTITLE4=Scars
TTITLE5=Gold in Them Hills
TTITLE6=Better Off Dead
TTITLE7=USA
TTITLE8=Two Grey Rooms
TTITLE9=Blues for Louis
TTITLE10=You Don't Know What Love Is
TTITLE11=Mother
EXTD=
EXTT0=
EXTT1=
EXTT2=
EXTT3=
EXTT4=
EXTT5=
EXTT6=
EXTT7=
EXTT8=
EXTT9=
EXTT10=
EXTT11=
PLAYORDER=
